<mxfile host="app.diagrams.net" agent="Mozilla/5.0 (Windows NT 10.0; Win64; x64) AppleWebKit/537.36 (KHTML, like Gecko) Chrome/130.0.0.0 Safari/537.36 Edg/130.0.0.0" version="24.8.4" pages="2">
  <diagram name="Page-1" id="YiarrFtJv7j1WDUy51OX">
    <mxGraphModel dx="797" dy="543" grid="1" gridSize="10" guides="1" tooltips="1" connect="1" arrows="1" fold="1" page="1" pageScale="1" pageWidth="827" pageHeight="1169" math="0" shadow="0">
      <root>
        <mxCell id="0" />
        <mxCell id="1" parent="0" />
        <mxCell id="QwCul-pqOy67NKQ5Udod-1" value="başla" style="ellipse;whiteSpace=wrap;html=1;" parent="1" vertex="1">
          <mxGeometry x="80" y="40" width="120" height="80" as="geometry" />
        </mxCell>
        <mxCell id="QwCul-pqOy67NKQ5Udod-3" value="" style="endArrow=classic;html=1;rounded=0;exitX=0.5;exitY=1;exitDx=0;exitDy=0;" parent="1" source="QwCul-pqOy67NKQ5Udod-1" edge="1">
          <mxGeometry width="50" height="50" relative="1" as="geometry">
            <mxPoint x="120" y="330" as="sourcePoint" />
            <mxPoint x="140" y="150" as="targetPoint" />
          </mxGeometry>
        </mxCell>
        <mxCell id="QwCul-pqOy67NKQ5Udod-38" style="edgeStyle=orthogonalEdgeStyle;rounded=0;orthogonalLoop=1;jettySize=auto;html=1;" parent="1" source="QwCul-pqOy67NKQ5Udod-4" edge="1">
          <mxGeometry relative="1" as="geometry">
            <mxPoint x="370" y="360" as="targetPoint" />
          </mxGeometry>
        </mxCell>
        <mxCell id="QwCul-pqOy67NKQ5Udod-4" value="top = top + sayi" style="rounded=0;whiteSpace=wrap;html=1;" parent="1" vertex="1">
          <mxGeometry x="220" y="410" width="120" height="60" as="geometry" />
        </mxCell>
        <mxCell id="QwCul-pqOy67NKQ5Udod-5" value="top=0&lt;div&gt;ort=0&lt;/div&gt;" style="shape=card;whiteSpace=wrap;html=1;" parent="1" vertex="1">
          <mxGeometry x="70" y="150" width="140" height="60" as="geometry" />
        </mxCell>
        <mxCell id="QwCul-pqOy67NKQ5Udod-15" style="edgeStyle=orthogonalEdgeStyle;rounded=0;orthogonalLoop=1;jettySize=auto;html=1;entryX=0.338;entryY=-0.04;entryDx=0;entryDy=0;entryPerimeter=0;" parent="1" source="QwCul-pqOy67NKQ5Udod-7" target="QwCul-pqOy67NKQ5Udod-4" edge="1">
          <mxGeometry relative="1" as="geometry">
            <mxPoint x="260" y="340" as="targetPoint" />
            <Array as="points">
              <mxPoint x="261" y="310" />
            </Array>
          </mxGeometry>
        </mxCell>
        <mxCell id="QwCul-pqOy67NKQ5Udod-7" value="&lt;font style=&quot;font-size: 14px;&quot;&gt;i := 0&amp;nbsp; &amp;nbsp; &amp;nbsp; &amp;nbsp; &amp;nbsp; &amp;nbsp; &amp;nbsp;1&lt;/font&gt;&lt;div&gt;&lt;font size=&quot;3&quot;&gt;&lt;br&gt;&lt;/font&gt;&lt;/div&gt;&lt;div&gt;&lt;font size=&quot;3&quot;&gt;N&lt;/font&gt;&lt;/div&gt;" style="rounded=0;whiteSpace=wrap;html=1;" parent="1" vertex="1">
          <mxGeometry x="70" y="250" width="140" height="80" as="geometry" />
        </mxCell>
        <mxCell id="QwCul-pqOy67NKQ5Udod-8" value="" style="endArrow=classic;html=1;rounded=0;exitX=0.5;exitY=1;exitDx=0;exitDy=0;" parent="1" edge="1">
          <mxGeometry width="50" height="50" relative="1" as="geometry">
            <mxPoint x="139.5" y="210" as="sourcePoint" />
            <mxPoint x="140" y="250" as="targetPoint" />
          </mxGeometry>
        </mxCell>
        <mxCell id="QwCul-pqOy67NKQ5Udod-21" value="" style="edgeStyle=orthogonalEdgeStyle;rounded=0;orthogonalLoop=1;jettySize=auto;html=1;" parent="1" source="QwCul-pqOy67NKQ5Udod-9" target="QwCul-pqOy67NKQ5Udod-20" edge="1">
          <mxGeometry relative="1" as="geometry" />
        </mxCell>
        <mxCell id="QwCul-pqOy67NKQ5Udod-9" value="top ort" style="shape=document;whiteSpace=wrap;html=1;boundedLbl=1;" parent="1" vertex="1">
          <mxGeometry x="40" y="460" width="120" height="60" as="geometry" />
        </mxCell>
        <mxCell id="QwCul-pqOy67NKQ5Udod-10" value="" style="shape=link;html=1;rounded=0;" parent="1" edge="1">
          <mxGeometry width="100" relative="1" as="geometry">
            <mxPoint x="160" y="250" as="sourcePoint" />
            <mxPoint x="160" y="290" as="targetPoint" />
          </mxGeometry>
        </mxCell>
        <mxCell id="QwCul-pqOy67NKQ5Udod-11" value="" style="endArrow=none;html=1;rounded=0;entryX=0.99;entryY=0.425;entryDx=0;entryDy=0;entryPerimeter=0;" parent="1" edge="1">
          <mxGeometry width="50" height="50" relative="1" as="geometry">
            <mxPoint x="70" y="289.4" as="sourcePoint" />
            <mxPoint x="209.9999999999999" y="289" as="targetPoint" />
          </mxGeometry>
        </mxCell>
        <mxCell id="QwCul-pqOy67NKQ5Udod-13" value="" style="endArrow=none;html=1;rounded=0;" parent="1" edge="1">
          <mxGeometry width="50" height="50" relative="1" as="geometry">
            <mxPoint x="100" y="330" as="sourcePoint" />
            <mxPoint x="100" y="370" as="targetPoint" />
          </mxGeometry>
        </mxCell>
        <mxCell id="QwCul-pqOy67NKQ5Udod-20" value="Bitir" style="ellipse;whiteSpace=wrap;html=1;" parent="1" vertex="1">
          <mxGeometry x="40" y="550" width="120" height="80" as="geometry" />
        </mxCell>
        <mxCell id="QwCul-pqOy67NKQ5Udod-41" style="edgeStyle=orthogonalEdgeStyle;rounded=0;orthogonalLoop=1;jettySize=auto;html=1;entryX=1;entryY=0.25;entryDx=0;entryDy=0;exitX=0.5;exitY=0;exitDx=0;exitDy=0;exitPerimeter=0;" parent="1" source="QwCul-pqOy67NKQ5Udod-37" target="QwCul-pqOy67NKQ5Udod-7" edge="1">
          <mxGeometry relative="1" as="geometry" />
        </mxCell>
        <mxCell id="QwCul-pqOy67NKQ5Udod-37" value="sayi" style="shape=card;whiteSpace=wrap;html=1;" parent="1" vertex="1">
          <mxGeometry x="300" y="310" width="100" height="60" as="geometry" />
        </mxCell>
        <mxCell id="QwCul-pqOy67NKQ5Udod-44" value="" style="edgeStyle=orthogonalEdgeStyle;rounded=0;orthogonalLoop=1;jettySize=auto;html=1;" parent="1" source="QwCul-pqOy67NKQ5Udod-42" target="QwCul-pqOy67NKQ5Udod-9" edge="1">
          <mxGeometry relative="1" as="geometry" />
        </mxCell>
        <mxCell id="QwCul-pqOy67NKQ5Udod-42" value="ort = top / N" style="rounded=0;whiteSpace=wrap;html=1;" parent="1" vertex="1">
          <mxGeometry x="40" y="370" width="120" height="60" as="geometry" />
        </mxCell>
        <mxCell id="dbEMY2ZYOa7TPTmXkR22-1" value="başla" style="ellipse;whiteSpace=wrap;html=1;" vertex="1" parent="1">
          <mxGeometry x="550" y="30" width="120" height="80" as="geometry" />
        </mxCell>
        <mxCell id="dbEMY2ZYOa7TPTmXkR22-2" value="" style="endArrow=classic;html=1;rounded=0;exitX=0.5;exitY=1;exitDx=0;exitDy=0;" edge="1" parent="1" source="dbEMY2ZYOa7TPTmXkR22-1">
          <mxGeometry width="50" height="50" relative="1" as="geometry">
            <mxPoint x="590" y="320" as="sourcePoint" />
            <mxPoint x="610" y="140" as="targetPoint" />
          </mxGeometry>
        </mxCell>
        <mxCell id="dbEMY2ZYOa7TPTmXkR22-3" value="a,b,c" style="shape=card;whiteSpace=wrap;html=1;" vertex="1" parent="1">
          <mxGeometry x="540" y="140" width="140" height="60" as="geometry" />
        </mxCell>
        <mxCell id="dbEMY2ZYOa7TPTmXkR22-4" value="" style="endArrow=classic;html=1;rounded=0;fontSize=12;startSize=8;endSize=8;curved=1;exitX=0.5;exitY=1;exitDx=0;exitDy=0;exitPerimeter=0;" edge="1" parent="1" source="dbEMY2ZYOa7TPTmXkR22-3">
          <mxGeometry width="50" height="50" relative="1" as="geometry">
            <mxPoint x="690" y="230" as="sourcePoint" />
            <mxPoint x="610" y="260" as="targetPoint" />
          </mxGeometry>
        </mxCell>
        <mxCell id="dbEMY2ZYOa7TPTmXkR22-11" value="temp = b&lt;div&gt;b=a&lt;/div&gt;&lt;div&gt;a=temp&lt;/div&gt;" style="whiteSpace=wrap;html=1;" vertex="1" parent="1">
          <mxGeometry x="470" y="430" width="120" height="60" as="geometry" />
        </mxCell>
        <mxCell id="dbEMY2ZYOa7TPTmXkR22-16" value="swap&lt;div&gt;&lt;br&gt;&lt;/div&gt;" style="text;html=1;align=center;verticalAlign=middle;whiteSpace=wrap;rounded=0;fontSize=16;" vertex="1" parent="1">
          <mxGeometry x="430" y="400" width="60" height="30" as="geometry" />
        </mxCell>
        <mxCell id="dbEMY2ZYOa7TPTmXkR22-20" value="temp = b&lt;div&gt;b = c&lt;/div&gt;&lt;div&gt;c = temp&lt;/div&gt;" style="whiteSpace=wrap;html=1;" vertex="1" parent="1">
          <mxGeometry x="500" y="670" width="120" height="60" as="geometry" />
        </mxCell>
        <mxCell id="dbEMY2ZYOa7TPTmXkR22-26" value="" style="verticalLabelPosition=bottom;verticalAlign=top;html=1;shape=hexagon;perimeter=hexagonPerimeter2;arcSize=6;size=0.27;" vertex="1" parent="1">
          <mxGeometry x="560" y="260" width="100" height="60" as="geometry" />
        </mxCell>
        <mxCell id="dbEMY2ZYOa7TPTmXkR22-27" style="edgeStyle=none;curved=1;rounded=0;orthogonalLoop=1;jettySize=auto;html=1;entryX=0;entryY=0.5;entryDx=0;entryDy=0;fontSize=12;startSize=8;endSize=8;" edge="1" parent="1" source="dbEMY2ZYOa7TPTmXkR22-26" target="dbEMY2ZYOa7TPTmXkR22-26">
          <mxGeometry relative="1" as="geometry" />
        </mxCell>
        <mxCell id="dbEMY2ZYOa7TPTmXkR22-29" value="a&amp;gt;=b" style="text;html=1;align=center;verticalAlign=middle;whiteSpace=wrap;rounded=0;fontSize=16;" vertex="1" parent="1">
          <mxGeometry x="580" y="275" width="60" height="30" as="geometry" />
        </mxCell>
        <mxCell id="dbEMY2ZYOa7TPTmXkR22-33" style="edgeStyle=orthogonalEdgeStyle;rounded=0;orthogonalLoop=1;jettySize=auto;html=1;entryX=0.5;entryY=0;entryDx=0;entryDy=0;" edge="1" parent="1" target="dbEMY2ZYOa7TPTmXkR22-11">
          <mxGeometry relative="1" as="geometry">
            <mxPoint x="515.44" y="389" as="targetPoint" />
            <Array as="points">
              <mxPoint x="560" y="291" />
              <mxPoint x="530" y="291" />
            </Array>
            <mxPoint x="530" y="291" as="sourcePoint" />
          </mxGeometry>
        </mxCell>
        <mxCell id="dbEMY2ZYOa7TPTmXkR22-36" value="evet" style="edgeLabel;html=1;align=center;verticalAlign=middle;resizable=0;points=[];fontSize=12;" vertex="1" connectable="0" parent="dbEMY2ZYOa7TPTmXkR22-33">
          <mxGeometry x="0.248" y="1" relative="1" as="geometry">
            <mxPoint y="-1" as="offset" />
          </mxGeometry>
        </mxCell>
        <mxCell id="dbEMY2ZYOa7TPTmXkR22-35" value="" style="edgeStyle=orthogonalEdgeStyle;rounded=0;orthogonalLoop=1;jettySize=auto;html=1;" edge="1" parent="1">
          <mxGeometry relative="1" as="geometry">
            <mxPoint x="110" y="440" as="sourcePoint" />
            <mxPoint x="110" y="470" as="targetPoint" />
          </mxGeometry>
        </mxCell>
        <mxCell id="dbEMY2ZYOa7TPTmXkR22-42" value="" style="verticalLabelPosition=bottom;verticalAlign=top;html=1;shape=hexagon;perimeter=hexagonPerimeter2;arcSize=6;size=0.27;" vertex="1" parent="1">
          <mxGeometry x="600" y="500" width="100" height="60" as="geometry" />
        </mxCell>
        <mxCell id="dbEMY2ZYOa7TPTmXkR22-43" value="b&amp;gt;=c" style="text;html=1;align=center;verticalAlign=middle;whiteSpace=wrap;rounded=0;fontSize=16;" vertex="1" parent="1">
          <mxGeometry x="620" y="515" width="60" height="30" as="geometry" />
        </mxCell>
        <mxCell id="dbEMY2ZYOa7TPTmXkR22-45" style="edgeStyle=orthogonalEdgeStyle;rounded=0;orthogonalLoop=1;jettySize=auto;html=1;entryX=0.5;entryY=0;entryDx=0;entryDy=0;entryPerimeter=0;exitX=0;exitY=0.5;exitDx=0;exitDy=0;" edge="1" parent="1" source="dbEMY2ZYOa7TPTmXkR22-42" target="dbEMY2ZYOa7TPTmXkR22-20">
          <mxGeometry relative="1" as="geometry">
            <mxPoint x="560" y="660" as="targetPoint" />
            <Array as="points">
              <mxPoint x="560" y="531" />
            </Array>
            <mxPoint x="569.94" y="531" as="sourcePoint" />
          </mxGeometry>
        </mxCell>
        <mxCell id="dbEMY2ZYOa7TPTmXkR22-46" value="evet" style="edgeLabel;html=1;align=center;verticalAlign=middle;resizable=0;points=[];fontSize=12;" vertex="1" connectable="0" parent="dbEMY2ZYOa7TPTmXkR22-45">
          <mxGeometry x="0.248" y="1" relative="1" as="geometry">
            <mxPoint y="-1" as="offset" />
          </mxGeometry>
        </mxCell>
        <mxCell id="dbEMY2ZYOa7TPTmXkR22-47" style="edgeStyle=orthogonalEdgeStyle;rounded=0;orthogonalLoop=1;jettySize=auto;html=1;entryX=0.5;entryY=0;entryDx=0;entryDy=0;exitX=1;exitY=0.5;exitDx=0;exitDy=0;" edge="1" parent="1" source="dbEMY2ZYOa7TPTmXkR22-42" target="dbEMY2ZYOa7TPTmXkR22-50">
          <mxGeometry relative="1" as="geometry">
            <mxPoint x="730" y="788.19" as="targetPoint" />
            <Array as="points">
              <mxPoint x="730" y="530" />
              <mxPoint x="730" y="800" />
            </Array>
            <mxPoint x="690" y="532" as="sourcePoint" />
          </mxGeometry>
        </mxCell>
        <mxCell id="dbEMY2ZYOa7TPTmXkR22-48" value="hayır" style="edgeLabel;html=1;align=center;verticalAlign=middle;resizable=0;points=[];fontSize=12;" vertex="1" connectable="0" parent="dbEMY2ZYOa7TPTmXkR22-47">
          <mxGeometry x="0.248" y="1" relative="1" as="geometry">
            <mxPoint y="-1" as="offset" />
          </mxGeometry>
        </mxCell>
        <mxCell id="dbEMY2ZYOa7TPTmXkR22-55" value="" style="edgeStyle=none;curved=1;rounded=0;orthogonalLoop=1;jettySize=auto;html=1;fontSize=12;startSize=8;endSize=8;" edge="1" parent="1" source="dbEMY2ZYOa7TPTmXkR22-50">
          <mxGeometry relative="1" as="geometry">
            <mxPoint x="720" y="930" as="targetPoint" />
          </mxGeometry>
        </mxCell>
        <mxCell id="dbEMY2ZYOa7TPTmXkR22-50" value="a,b,c" style="shape=document;whiteSpace=wrap;html=1;boundedLbl=1;" vertex="1" parent="1">
          <mxGeometry x="660" y="800" width="120" height="80" as="geometry" />
        </mxCell>
        <mxCell id="dbEMY2ZYOa7TPTmXkR22-51" style="edgeStyle=orthogonalEdgeStyle;rounded=0;orthogonalLoop=1;jettySize=auto;html=1;exitX=0.5;exitY=1;exitDx=0;exitDy=0;" edge="1" parent="1" source="dbEMY2ZYOa7TPTmXkR22-20">
          <mxGeometry relative="1" as="geometry">
            <mxPoint x="660" y="840" as="targetPoint" />
            <Array as="points">
              <mxPoint x="560" y="840" />
            </Array>
            <mxPoint x="550" y="610" as="sourcePoint" />
          </mxGeometry>
        </mxCell>
        <mxCell id="dbEMY2ZYOa7TPTmXkR22-54" value="bitir" style="ellipse;whiteSpace=wrap;html=1;" vertex="1" parent="1">
          <mxGeometry x="680" y="930" width="80" height="50" as="geometry" />
        </mxCell>
      </root>
    </mxGraphModel>
  </diagram>
  <diagram id="8RNru71te0uniO1xH3ws" name="Page-2">
    <mxGraphModel dx="708" dy="1282" grid="0" gridSize="10" guides="1" tooltips="1" connect="1" arrows="1" fold="1" page="0" pageScale="1" pageWidth="827" pageHeight="1169" math="0" shadow="0">
      <root>
        <mxCell id="0" />
        <mxCell id="1" parent="0" />
        <mxCell id="y1MHkDInYqB3P2j4VxbK-4" value="" style="edgeStyle=none;curved=1;rounded=0;orthogonalLoop=1;jettySize=auto;html=1;fontSize=12;startSize=8;endSize=8;" edge="1" parent="1" source="y1MHkDInYqB3P2j4VxbK-1" target="y1MHkDInYqB3P2j4VxbK-3">
          <mxGeometry relative="1" as="geometry" />
        </mxCell>
        <mxCell id="y1MHkDInYqB3P2j4VxbK-1" value="başla" style="ellipse;whiteSpace=wrap;html=1;" vertex="1" parent="1">
          <mxGeometry x="408" y="-786" width="120" height="80" as="geometry" />
        </mxCell>
        <mxCell id="y1MHkDInYqB3P2j4VxbK-13" value="" style="edgeStyle=none;curved=1;rounded=0;orthogonalLoop=1;jettySize=auto;html=1;fontSize=12;startSize=8;endSize=8;" edge="1" parent="1" source="y1MHkDInYqB3P2j4VxbK-2" target="y1MHkDInYqB3P2j4VxbK-12">
          <mxGeometry relative="1" as="geometry" />
        </mxCell>
        <mxCell id="y1MHkDInYqB3P2j4VxbK-2" value="a,b,c,d,e,f" style="shape=card;whiteSpace=wrap;html=1;" vertex="1" parent="1">
          <mxGeometry x="414" y="-542" width="105" height="55" as="geometry" />
        </mxCell>
        <mxCell id="y1MHkDInYqB3P2j4VxbK-3" value="&quot;Bir üçgenin üç köşe noktasının x ve y koordinatlarını hepsi için sırayla giriniz.&quot;" style="shape=document;whiteSpace=wrap;html=1;boundedLbl=1;" vertex="1" parent="1">
          <mxGeometry x="382" y="-672" width="172" height="116" as="geometry" />
        </mxCell>
        <mxCell id="y1MHkDInYqB3P2j4VxbK-6" value="" style="endArrow=classic;html=1;rounded=0;fontSize=12;startSize=8;endSize=8;curved=1;" edge="1" parent="1">
          <mxGeometry width="50" height="50" relative="1" as="geometry">
            <mxPoint x="468" y="-571" as="sourcePoint" />
            <mxPoint x="468" y="-543" as="targetPoint" />
          </mxGeometry>
        </mxCell>
        <mxCell id="y1MHkDInYqB3P2j4VxbK-17" value="" style="edgeStyle=none;curved=1;rounded=0;orthogonalLoop=1;jettySize=auto;html=1;fontSize=12;startSize=8;endSize=8;" edge="1" parent="1" source="y1MHkDInYqB3P2j4VxbK-12" target="y1MHkDInYqB3P2j4VxbK-16">
          <mxGeometry relative="1" as="geometry" />
        </mxCell>
        <mxCell id="y1MHkDInYqB3P2j4VxbK-12" value="x,y,z" style="whiteSpace=wrap;html=1;" vertex="1" parent="1">
          <mxGeometry x="408" y="-451" width="120" height="60" as="geometry" />
        </mxCell>
        <mxCell id="y1MHkDInYqB3P2j4VxbK-16" value="&amp;nbsp; &amp;nbsp; i:=0&amp;nbsp; &amp;nbsp; &amp;nbsp; &amp;nbsp; &amp;nbsp; &amp;nbsp; &amp;nbsp;1&lt;div&gt;&lt;br&gt;&lt;/div&gt;&lt;div&gt;&lt;span style=&quot;background-color: initial;&quot;&gt;3&lt;/span&gt;&lt;/div&gt;" style="whiteSpace=wrap;html=1;" vertex="1" parent="1">
          <mxGeometry x="408" y="-342" width="120" height="64" as="geometry" />
        </mxCell>
        <mxCell id="y1MHkDInYqB3P2j4VxbK-18" value="" style="shape=link;html=1;rounded=0;fontSize=12;startSize=8;endSize=8;curved=1;" edge="1" parent="1">
          <mxGeometry width="100" relative="1" as="geometry">
            <mxPoint x="484" y="-342" as="sourcePoint" />
            <mxPoint x="484" y="-310" as="targetPoint" />
          </mxGeometry>
        </mxCell>
        <mxCell id="y1MHkDInYqB3P2j4VxbK-19" value="" style="endArrow=none;html=1;rounded=0;fontSize=12;startSize=8;endSize=8;curved=1;entryX=1;entryY=0.5;entryDx=0;entryDy=0;exitX=0;exitY=0.5;exitDx=0;exitDy=0;" edge="1" parent="1" source="y1MHkDInYqB3P2j4VxbK-16" target="y1MHkDInYqB3P2j4VxbK-16">
          <mxGeometry width="50" height="50" relative="1" as="geometry">
            <mxPoint x="404" y="-310" as="sourcePoint" />
            <mxPoint x="513" y="-317" as="targetPoint" />
          </mxGeometry>
        </mxCell>
        <mxCell id="y1MHkDInYqB3P2j4VxbK-20" value="" style="edgeStyle=segmentEdgeStyle;endArrow=classic;html=1;curved=0;rounded=0;endSize=8;startSize=8;fontSize=12;" edge="1" parent="1">
          <mxGeometry width="50" height="50" relative="1" as="geometry">
            <mxPoint x="528" y="-310" as="sourcePoint" />
            <mxPoint x="631" y="-225" as="targetPoint" />
          </mxGeometry>
        </mxCell>
        <mxCell id="y1MHkDInYqB3P2j4VxbK-21" value="abs(a-b)" style="rounded=0;whiteSpace=wrap;html=1;" vertex="1" parent="1">
          <mxGeometry x="573" y="-223" width="120" height="60" as="geometry" />
        </mxCell>
      </root>
    </mxGraphModel>
  </diagram>
</mxfile>
